#N canvas 608 131 1165 928 10;
#X declare -lib mrpeach;
#X obj 431 200 tgl 15 0 empty empty empty 17 7 0 10 -262144 -1 -1 0
1;
#X floatatom 482 183 5 10 1000 0 - - -;
#X floatatom 518 207 5 0 0 0 - - -;
#X obj 430 238 metro 100;
#X obj 496 282 bng 15 250 50 0 empty empty empty 17 7 0 10 -262144
-1 -1;
#X obj 431 603 tgl 15 0 empty empty empty 17 7 0 10 -262144 -1 -1 0
1;
#X obj 532 610 tgl 15 0 empty empty empty 17 7 0 10 -262144 -1 -1 0
1;
#X obj 614 609 tgl 15 0 empty empty empty 17 7 0 10 -262144 -1 -1 0
1;
#X obj 487 762 dac~;
#N canvas 445 237 527 566 little 0;
#X obj -477 -1329 unpack f f;
#X obj -478 -1285 mtof;
#X obj -489 -1050 *~;
#X obj -478 -1240 sig~;
#X obj -358 -1092 vline~;
#X text -339 -1191 zero velocity == noteoff;
#X msg -330 -1142 0 \, 1 2;
#X obj -277 -1169 bang;
#X obj -275 -1142 delay 10;
#X msg -272 -1111 0;
#X obj -405 -1178 delay 1;
#X msg -441 -1172 0 1;
#X obj -395 -1145 pack 0 10;
#X obj -393 -1223 sel 0;
#X obj -498 -1119 osc~;
#X obj -489 -1184 *~ 2;
#X obj -498 -1090 *~ 0.1;
#X obj -489 -1004 outlet~;
#X obj -485 -1370 inlet;
#X connect 0 0 1 0;
#X connect 0 1 13 0;
#X connect 1 0 3 0;
#X connect 2 0 17 0;
#X connect 3 0 15 0;
#X connect 4 0 2 1;
#X connect 6 0 4 0;
#X connect 7 0 8 0;
#X connect 8 0 9 0;
#X connect 9 0 12 0;
#X connect 10 0 12 0;
#X connect 11 0 4 0;
#X connect 12 0 4 0;
#X connect 13 0 10 0;
#X connect 13 0 11 0;
#X connect 13 1 6 0;
#X connect 13 1 7 0;
#X connect 14 0 16 0;
#X connect 15 0 14 0;
#X connect 16 0 2 0;
#X connect 18 0 0 0;
#X restore 410 704 pd little;
#X obj 421 646 sel 1;
#X obj 130 412 bang;
#X obj 130 441 t b b;
#X obj 127 473 timer;
#X floatatom 123 502 5 0 0 0 - - -;
#X msg 417 679 70 10;
#X obj 120 280 bang;
#X obj 153 322 + 1;
#X floatatom 114 360 12 0 0 0 - - -;
#X msg 188 258 0;
#N canvas 445 237 527 566 little 0;
#X obj -477 -1329 unpack f f;
#X obj -478 -1285 mtof;
#X obj -489 -1050 *~;
#X obj -478 -1240 sig~;
#X obj -358 -1092 vline~;
#X text -339 -1191 zero velocity == noteoff;
#X msg -330 -1142 0 \, 1 2;
#X obj -277 -1169 bang;
#X obj -275 -1142 delay 10;
#X msg -272 -1111 0;
#X obj -405 -1178 delay 1;
#X msg -441 -1172 0 1;
#X obj -395 -1145 pack 0 10;
#X obj -393 -1223 sel 0;
#X obj -498 -1119 osc~;
#X obj -489 -1184 *~ 2;
#X obj -498 -1090 *~ 0.1;
#X obj -489 -1004 outlet~;
#X obj -485 -1370 inlet;
#X connect 0 0 1 0;
#X connect 0 1 13 0;
#X connect 1 0 3 0;
#X connect 2 0 17 0;
#X connect 3 0 15 0;
#X connect 4 0 2 1;
#X connect 6 0 4 0;
#X connect 7 0 8 0;
#X connect 8 0 9 0;
#X connect 9 0 12 0;
#X connect 10 0 12 0;
#X connect 11 0 4 0;
#X connect 12 0 4 0;
#X connect 13 0 10 0;
#X connect 13 0 11 0;
#X connect 13 1 6 0;
#X connect 13 1 7 0;
#X connect 14 0 16 0;
#X connect 15 0 14 0;
#X connect 16 0 2 0;
#X connect 18 0 0 0;
#X restore 503 708 pd little;
#X obj 514 650 sel 1;
#N canvas 446 234 527 566 little 0;
#X obj 120 133 unpack f f;
#X obj 119 177 mtof;
#X obj 108 412 *~;
#X obj 119 222 sig~;
#X obj 239 370 vline~;
#X text 258 271 zero velocity == noteoff;
#X msg 267 320 0 \, 1 2;
#X obj 320 293 bang;
#X obj 327 324 delay 10;
#X msg 325 351 0;
#X obj 192 284 delay 1;
#X msg 156 290 0 1;
#X obj 202 317 pack 0 10;
#X obj 204 239 sel 0;
#X obj 99 343 osc~;
#X obj 108 278 *~ 2;
#X obj 99 372 *~ 0.1;
#X obj 108 458 outlet~;
#X obj 112 92 inlet;
#X connect 0 0 1 0;
#X connect 0 1 13 0;
#X connect 1 0 3 0;
#X connect 2 0 17 0;
#X connect 3 0 15 0;
#X connect 4 0 2 1;
#X connect 6 0 4 0;
#X connect 7 0 8 0;
#X connect 8 0 9 0;
#X connect 9 0 12 0;
#X connect 10 0 12 0;
#X connect 11 0 4 0;
#X connect 12 0 4 0;
#X connect 13 0 10 0;
#X connect 13 0 11 0;
#X connect 13 1 6 0;
#X connect 13 1 7 0;
#X connect 14 0 16 0;
#X connect 15 0 14 0;
#X connect 16 0 2 0;
#X connect 18 0 0 0;
#X restore 605 702 pd little;
#X obj 611 643 sel 1;
#X msg 510 683 80 10;
#X msg 607 676 90 10;
#X obj 355 671 print;
#X obj 111 321 i 0;
#X obj 1018 34 import mrpeach;
#X msg 490 348 send /kled/1 \$1;
#X obj 621 197 tgl 15 0 empty empty empty 17 7 0 10 -262144 -1 -1 0
1;
#X obj 640 284 bng 15 250 50 0 empty empty empty 17 7 0 10 -262144
-1 -1;
#X obj 620 235 metro 1000;
#X msg 619 354 send /kled/2 \$1;
#X obj 433 569 routeOSC /h/kled/1 /h/kled/2 /h/kled/3;
#N canvas 1744 509 450 300 8up 0;
#X obj 192 86 bang;
#X obj 225 128 + 1;
#X msg 260 64 0;
#X obj 183 127 i 0;
#X obj 200 42 bng 15 250 50 0 empty empty empty 17 7 0 10 -262144 -1
-1;
#X obj 186 168 t a a;
#X obj 215 201 sel 7;
#X obj 202 15 inlet;
#X obj 89 242 outlet;
#X connect 0 0 3 0;
#X connect 1 0 3 1;
#X connect 2 0 3 1;
#X connect 3 0 5 0;
#X connect 3 0 8 0;
#X connect 4 0 0 0;
#X connect 5 0 6 0;
#X connect 5 1 1 0;
#X connect 6 0 2 0;
#X connect 7 0 4 0;
#X restore 527 314 pd 8up;
#N canvas 1744 509 450 300 8up 0;
#X obj 192 86 bang;
#X obj 225 128 + 1;
#X msg 260 64 0;
#X obj 183 127 i 0;
#X obj 200 42 bng 15 250 50 0 empty empty empty 17 7 0 10 -262144 -1
-1;
#X obj 186 168 t a a;
#X obj 215 201 sel 7;
#X obj 202 15 inlet;
#X obj 89 242 outlet;
#X connect 0 0 3 0;
#X connect 1 0 3 1;
#X connect 2 0 3 1;
#X connect 3 0 5 0;
#X connect 3 0 8 0;
#X connect 4 0 0 0;
#X connect 5 0 6 0;
#X connect 5 1 1 0;
#X connect 6 0 2 0;
#X connect 7 0 4 0;
#X restore 621 312 pd 8up;
#X obj 798 178 tgl 15 0 empty empty empty 17 7 0 10 -262144 -1 -1 0
1;
#X obj 806 248 bng 15 250 50 0 empty empty empty 17 7 0 10 -262144
-1 -1;
#X obj 801 298 t b f;
#X msg 749 355 send /kled/3 0;
#X obj 758 327 delay 50;
#X obj 664 428 s oscOut;
#X obj 797 216 metro 300;
#N canvas 144 273 1127 969 system 0;
#X msg 528 263 baud 115200;
#X msg 398 162 pollintervall 1;
#X obj 300 329 o.io.slipserial;
#X msg 775 688 /ready;
#X msg 605 691 /renumber;
#X msg 690 689 /resetindex;
#X msg 418 228 close;
#X obj 691 621 t b b b;
#X obj 154 596 bng 15 250 50 0 empty empty empty 17 7 0 10 -262144
-1 -1;
#X obj 294 284 packOSC;
#X obj 301 371 unpackOSC;
#X msg 364 117 devicename /dev/ttyUSB0 \, baud 115200 \, pollintervall
1;
#X msg 473 201 devicename /dev/tty.usbserial-A30013Jp \, baud 115200
\, pollintervall 1;
#X obj 154 525 tgl 15 0 empty empty empty 17 7 0 10 -262144 -1 -1 1
1;
#X obj 153 563 metro 1000;
#X obj 303 229 r oscOut;
#X msg 192 659 /cool;
#X obj 38 619 routeOSC /cool;
#X obj 154 626 t b b;
#X obj 695 580 bng 15 250 50 0 empty empty empty 17 7 0 10 -262144
-1 -1;
#X obj 407 617 routeOSC /hi;
#X obj 411 645 bng 15 250 50 0 empty empty empty 17 7 0 10 -262144
-1 -1;
#X obj 413 672 delay 1000;
#X obj 312 405 s oscIn;
#X obj 192 690 s oscOut;
#X obj 38 585 r oscIn;
#X obj 152 784 bng 15 250 50 0 empty empty empty 17 7 0 10 -262144
-1 -1;
#X msg 97 680 stop;
#X obj 37 644 bng 15 250 50 0 empty empty empty 17 7 0 10 -262144 -1
-1;
#X obj 152 750 delay 500;
#X obj 152 825 s resetAll;
#X obj 693 542 r resetAll;
#X text 196 509 watchdog timer;
#X obj 135 474 loadbang;
#X obj 683 772 s oscOut;
#X obj 410 54 loadbang;
#X obj 416 584 r oscIn;
#X obj 597 622 print RESET;
#X obj 416 740 s resetAll;
#X text 410 553 new blocky;
#X connect 0 0 2 1;
#X connect 1 0 2 1;
#X connect 2 0 10 0;
#X connect 3 0 34 0;
#X connect 4 0 34 0;
#X connect 5 0 34 0;
#X connect 6 0 2 1;
#X connect 7 0 4 0;
#X connect 7 1 5 0;
#X connect 7 2 3 0;
#X connect 8 0 18 0;
#X connect 9 0 2 0;
#X connect 10 0 23 0;
#X connect 11 0 2 1;
#X connect 12 0 2 1;
#X connect 13 0 14 0;
#X connect 14 0 8 0;
#X connect 15 0 9 0;
#X connect 16 0 24 0;
#X connect 17 0 28 0;
#X connect 18 0 29 0;
#X connect 18 1 16 0;
#X connect 19 0 7 0;
#X connect 19 0 37 0;
#X connect 20 0 21 0;
#X connect 21 0 22 0;
#X connect 22 0 38 0;
#X connect 25 0 17 0;
#X connect 26 0 30 0;
#X connect 27 0 29 0;
#X connect 28 0 27 0;
#X connect 29 0 26 0;
#X connect 31 0 19 0;
#X connect 33 0 13 0;
#X connect 35 0 12 0;
#X connect 36 0 20 0;
#X restore 105 78 pd system;
#X obj 432 541 r oscIn;
#X msg 870 352 send /kled/3 3;
#X connect 0 0 3 0;
#X connect 1 0 3 1;
#X connect 2 0 3 1;
#X connect 3 0 4 0;
#X connect 4 0 35 0;
#X connect 5 0 10 0;
#X connect 6 0 21 0;
#X connect 7 0 23 0;
#X connect 9 0 8 0;
#X connect 9 0 8 1;
#X connect 10 0 15 0;
#X connect 11 0 12 0;
#X connect 12 0 13 1;
#X connect 13 0 14 0;
#X connect 15 0 9 0;
#X connect 16 0 27 0;
#X connect 17 0 27 1;
#X connect 19 0 27 1;
#X connect 20 0 8 0;
#X connect 20 0 8 1;
#X connect 21 0 24 0;
#X connect 22 0 8 1;
#X connect 22 0 8 0;
#X connect 23 0 25 0;
#X connect 24 0 20 0;
#X connect 25 0 22 0;
#X connect 27 0 17 0;
#X connect 27 0 18 0;
#X connect 29 0 42 0;
#X connect 30 0 32 0;
#X connect 31 0 36 0;
#X connect 32 0 31 0;
#X connect 33 0 42 0;
#X connect 34 0 5 0;
#X connect 34 0 26 0;
#X connect 34 1 6 0;
#X connect 34 2 7 0;
#X connect 35 0 29 0;
#X connect 36 0 33 0;
#X connect 37 0 43 0;
#X connect 38 0 39 0;
#X connect 39 0 41 0;
#X connect 39 1 46 0;
#X connect 40 0 42 0;
#X connect 41 0 40 0;
#X connect 43 0 38 0;
#X connect 45 0 34 0;
#X connect 46 0 42 0;
