#N canvas 299 109 450 300 10;
#X obj 99 120 comport;
#X obj 76 16 inlet;
#X obj 74 240 outlet;
#X obj 261 46 inlet;
#X obj 95 47 mrpeach/slipenc 65536;
#X obj 95 180 mrpeach/slipdec 65536;
#X connect 0 0 5 0;
#X connect 1 0 4 0;
#X connect 3 0 0 0;
#X connect 4 0 0 0;
#X connect 5 0 2 0;
