#N canvas 439 31 999 716 10;
#X obj 620 50 tgl 15 0 empty empty empty 17 7 0 10 -262144 -1 -1 0
1;
#X floatatom 671 33 5 10 1000 0 - - -;
#X floatatom 707 57 5 0 0 0 - - -;
#X obj 619 88 metro 100;
#X obj 343 353 mrpeach/unpackOSC;
#X floatatom 330 477 5 0 0 0 - - -;
#X obj 335 266 mrpeach/packOSC;
#X msg 465 250 devicename /dev/tty.usbserial-A30013Jp \, baud 115200
\, pollintervall 1;
#X obj 330 511 vsl 15 128 0 1023 0 0 empty empty empty 0 -9 0 10 -262144
-1 -1 9385 1;
#X msg 620 290 baud 115200;
#X msg 484 286 pollintervall 1;
#X obj 378 166 random 8;
#X floatatom 325 89 5 0 0 0 - - -;
#X obj 342 311 o.io.slipserial;
#X msg 63 174 /ready;
#X msg 263 151 /renumber;
#X obj 441 99 bng 15 250 50 0 empty empty empty 17 7 0 10 -262144 -1
-1;
#X obj 526 156 random 8;
#X obj 522 132 bng 15 250 50 0 empty empty empty 17 7 0 10 -262144
-1 -1;
#X msg 373 197 send /led/0 \$1;
#X msg 489 192 send /led/1 \$1;
#X obj 640 152 random 8;
#X obj 636 128 bng 15 250 50 0 empty empty empty 17 7 0 10 -262144
-1 -1;
#X obj 756 147 random 8;
#X obj 752 123 bng 15 250 50 0 empty empty empty 17 7 0 10 -262144
-1 -1;
#X msg 603 188 send /led/2 \$1;
#X msg 174 156 /resetindex;
#X msg 719 183 send /led/3 \$1;
#X floatatom 401 478 5 0 0 0 - - -;
#X obj 401 512 vsl 15 128 0 1023 0 0 empty empty empty 0 -9 0 10 -262144
-1 -1 4494 1;
#X floatatom 463 479 5 0 0 0 - - -;
#X obj 463 513 vsl 15 128 0 1023 0 0 empty empty empty 0 -9 0 10 -262144
-1 -1 9249 1;
#X floatatom 523 479 5 0 0 0 - - -;
#X obj 523 513 vsl 15 128 0 1023 0 0 empty empty empty 0 -9 0 10 -262144
-1 -1 0 1;
#X obj 329 429 mrpeach/routeOSC /pot/0 /pot/1 /pot/2 /pot/3;
#X obj 119 403 routeOSC /key/0 /key/1 /key/2;
#X obj 117 437 tgl 15 0 empty empty empty 17 7 0 10 -262144 -1 -1 0
1;
#X obj 171 435 tgl 15 0 empty empty empty 17 7 0 10 -262144 -1 -1 0
1;
#X obj 231 432 tgl 15 0 empty empty empty 17 7 0 10 -262144 -1 -1 0
1;
#X obj 82 596 dac~;
#N canvas 445 237 527 566 little 0;
#X obj -477 -1329 unpack f f;
#X obj -478 -1285 mtof;
#X obj -489 -1050 *~;
#X obj -478 -1240 sig~;
#X obj -358 -1092 vline~;
#X text -339 -1191 zero velocity == noteoff;
#X msg -330 -1142 0 \, 1 2;
#X obj -277 -1169 bang;
#X obj -275 -1142 delay 10;
#X msg -272 -1111 0;
#X obj -405 -1178 delay 1;
#X msg -441 -1172 0 1;
#X obj -395 -1145 pack 0 10;
#X obj -393 -1223 sel 0;
#X obj -498 -1119 osc~;
#X obj -489 -1184 *~ 2;
#X obj -498 -1090 *~ 0.1;
#X obj -489 -1004 outlet~;
#X obj -485 -1370 inlet;
#X connect 0 0 1 0;
#X connect 0 1 13 0;
#X connect 1 0 3 0;
#X connect 2 0 17 0;
#X connect 3 0 15 0;
#X connect 4 0 2 1;
#X connect 6 0 4 0;
#X connect 7 0 8 0;
#X connect 8 0 9 0;
#X connect 9 0 12 0;
#X connect 10 0 12 0;
#X connect 11 0 4 0;
#X connect 12 0 4 0;
#X connect 13 0 10 0;
#X connect 13 0 11 0;
#X connect 13 1 6 0;
#X connect 13 1 7 0;
#X connect 14 0 16 0;
#X connect 15 0 14 0;
#X connect 16 0 2 0;
#X connect 18 0 0 0;
#X restore 96 538 pd little;
#X obj 107 480 sel 1;
#X msg 505 340 close;
#X msg 145 241 /stat;
#X floatatom 32 393 5 0 0 0 - - -;
#X obj 43 352 routeOSC /tet/0;
#X obj -5 455 bang;
#X obj -9 491 t b b;
#X obj -7 522 timer;
#X floatatom -11 551 5 0 0 0 - - -;
#X msg 53 488 70 10;
#X obj 653 433 bang;
#X obj 644 474 f 0;
#X obj 686 475 + 1;
#X floatatom 638 515 8 0 0 0 - - -;
#X floatatom 646 562 5 0 0 0 - - -;
#X connect 0 0 3 0;
#X connect 1 0 3 1;
#X connect 2 0 3 1;
#X connect 3 0 11 0;
#X connect 4 0 34 0;
#X connect 4 0 35 0;
#X connect 4 0 45 0;
#X connect 4 0 51 0;
#X connect 5 0 8 0;
#X connect 6 0 13 0;
#X connect 7 0 13 1;
#X connect 9 0 13 1;
#X connect 10 0 13 1;
#X connect 11 0 19 0;
#X connect 12 0 19 0;
#X connect 13 0 4 0;
#X connect 14 0 6 0;
#X connect 15 0 6 0;
#X connect 16 0 11 0;
#X connect 17 0 20 0;
#X connect 18 0 17 0;
#X connect 19 0 6 0;
#X connect 20 0 6 0;
#X connect 21 0 25 0;
#X connect 22 0 21 0;
#X connect 23 0 27 0;
#X connect 24 0 23 0;
#X connect 25 0 6 0;
#X connect 26 0 6 0;
#X connect 27 0 6 0;
#X connect 28 0 29 0;
#X connect 30 0 31 0;
#X connect 32 0 33 0;
#X connect 34 0 5 0;
#X connect 34 1 28 0;
#X connect 34 2 30 0;
#X connect 34 3 32 0;
#X connect 35 0 36 0;
#X connect 35 1 37 0;
#X connect 35 2 38 0;
#X connect 36 0 41 0;
#X connect 40 0 39 0;
#X connect 40 0 39 1;
#X connect 42 0 13 1;
#X connect 43 0 6 0;
#X connect 44 0 46 0;
#X connect 45 0 44 0;
#X connect 46 0 47 0;
#X connect 47 0 48 0;
#X connect 47 1 48 1;
#X connect 48 0 49 0;
#X connect 50 0 40 0;
#X connect 51 0 52 0;
#X connect 52 0 53 0;
#X connect 52 0 54 0;
#X connect 53 0 52 1;
